<svg width="12" height="12" viewBox="0 0 12 12" fill="none" xmlns="http://www.w3.org/2000/svg">
    <path d="M5.83333 11.6667C9.05497 11.6667 11.6667 9.05497 11.6667 5.83333C11.6667 2.61167 9.05497 0 5.83333 0C2.61167 0 0 2.61167 0 5.83333C0 9.05497 2.61167 11.6667 5.83333 11.6667ZM9.01664 4.34998L5.25 8.11662L2.79585 5.66248L3.62081 4.83753L5.25 6.46672L8.19169 3.52502L9.01664 4.34998Z" fill="black"/>
    <path d="M5.83333 11.6667C9.05497 11.6667 11.6667 9.05497 11.6667 5.83333C11.6667 2.61167 9.05497 0 5.83333 0C2.61167 0 0 2.61167 0 5.83333C0 9.05497 2.61167 11.6667 5.83333 11.6667ZM9.01664 4.34998L5.25 8.11662L2.79585 5.66248L3.62081 4.83753L5.25 6.46672L8.19169 3.52502L9.01664 4.34998Z" fill="url(#paint0_linear_1718_1158)"/>
    <defs>
    <linearGradient id="paint0_linear_1718_1158" x1="7.00304" y1="2.21511e-07" x2="6.98025" y2="11.6667" gradientUnits="userSpaceOnUse">
    <stop stop-color="#48BEA2"/>
    <stop offset="1" stop-color="#008B6C"/>
    </linearGradient>
    </defs>
    </svg>
    