<svg width="42" height="42" viewBox="0 0 42 42" fill="none" xmlns="http://www.w3.org/2000/svg">
    <rect width="42" height="42" rx="4" fill="#FFF7E7"/>
    <path d="M11.5 16.7305C11.5 18.9396 13.2909 20.7305 15.5 20.7305C17.7091 20.7305 19.5 18.9396 19.5 16.7305C19.5 14.5213 17.7091 12.7305 15.5 12.7305C13.2909 12.7305 11.5 14.5213 11.5 16.7305ZM11 30.7305V26.2305C11 23.7452 13.0147 21.7305 15.5 21.7305C17.9853 21.7305 20 23.7452 20 26.2305V30.7305H11ZM26.5 20.7305C24.2909 20.7305 22.5 18.9396 22.5 16.7305C22.5 14.5213 24.2909 12.7305 26.5 12.7305C28.7091 12.7305 30.5 14.5213 30.5 16.7305C30.5 18.9396 28.7091 20.7305 26.5 20.7305ZM22 30.7305V26.2305C22 23.7452 24.0147 21.7305 26.5 21.7305C28.9853 21.7305 31 23.7452 31 26.2305V30.7305H22Z" fill="black"/>
    <path d="M11.5 16.7305C11.5 18.9396 13.2909 20.7305 15.5 20.7305C17.7091 20.7305 19.5 18.9396 19.5 16.7305C19.5 14.5213 17.7091 12.7305 15.5 12.7305C13.2909 12.7305 11.5 14.5213 11.5 16.7305ZM11 30.7305V26.2305C11 23.7452 13.0147 21.7305 15.5 21.7305C17.9853 21.7305 20 23.7452 20 26.2305V30.7305H11ZM26.5 20.7305C24.2909 20.7305 22.5 18.9396 22.5 16.7305C22.5 14.5213 24.2909 12.7305 26.5 12.7305C28.7091 12.7305 30.5 14.5213 30.5 16.7305C30.5 18.9396 28.7091 20.7305 26.5 20.7305ZM22 30.7305V26.2305C22 23.7452 24.0147 21.7305 26.5 21.7305C28.9853 21.7305 31 23.7452 31 26.2305V30.7305H22Z" fill="url(#paint0_linear_1718_1075)"/>
    <defs>
    <linearGradient id="paint0_linear_1718_1075" x1="21" y1="12.7305" x2="21" y2="30.7305" gradientUnits="userSpaceOnUse">
    <stop stop-color="#FED055"/>
    <stop offset="1" stop-color="#FFAC28"/>
    </linearGradient>
    </defs>
    </svg>
    